<?xml version="1.0" encoding="UTF-8" standalone="no"?>
<svg
   id="Layer_1"
   style="enable-background:new 0 0 24 24;"
   version="1.1"
   viewBox="0 0 24 24"
   xml:space="preserve"
   fill="#8BC34A"
   sodipodi:docname="edit.svg"
   inkscape:version="1.1.1 (3bf5ae0d25, 2021-09-20)"
   xmlns:inkscape="http://www.inkscape.org/namespaces/inkscape"
   xmlns:sodipodi="http://sodipodi.sourceforge.net/DTD/sodipodi-0.dtd"
   xmlns="http://www.w3.org/2000/svg"
   xmlns:svg="http://www.w3.org/2000/svg"><defs
     id="defs9" /><sodipodi:namedview
     id="namedview7"
     pagecolor="#ffffff"
     bordercolor="#666666"
     borderopacity="1.0"
     inkscape:pageshadow="2"
     inkscape:pageopacity="0.0"
     inkscape:pagecheckerboard="0"
     showgrid="false"
     inkscape:zoom="32"
     inkscape:cx="19.921875"
     inkscape:cy="8.78125"
     inkscape:window-width="1920"
     inkscape:window-height="1006"
     inkscape:window-x="0"
     inkscape:window-y="0"
     inkscape:window-maximized="1"
     inkscape:current-layer="Layer_1" /><path
     d="m 21.29288,20.572092 c 0,1.119634 -0.892226,2.063889 -1.990063,2.063889 H 3.3785726 c -1.097837,0 -1.9900633,-0.944255 -1.9900633,-2.063889 V 4.331676 c 0,-1.1196343 0.8922263,-1.9965329 1.9900633,-1.9965329 H 12.667196 V 0.9829401 H 3.3785726 c -1.829313,0 -3.31718746,1.4843733 -3.31718746,3.3500068 V 20.572092 c 0,1.865633 1.48787446,3.416092 3.31718746,3.416092 H 19.301571 c 1.829313,0 3.317188,-1.55173 3.317188,-3.416092 v -9.440004 h -1.327125 v 9.440004 z"
     id="path2"
     style="stroke-width:1.25844" /><path
     d="m 22.788232,0.77705956 c -1.001886,-1.02304835 -2.7502,-1.02304835 -3.753332,0 L 10.133822,9.8548663 C 10.049085,9.9412852 9.9880251,10.05058 9.9593642,10.168771 l -0.9370868,3.826581 c -0.056076,0.230027 0.00997,0.474034 0.1744577,0.643059 0.1258587,0.128358 0.2953319,0.198256 0.4685434,0.198256 0.053583,0 0.1071668,-0.0064 0.1607502,-0.02033 L 13.57936,13.859369 c 0.117136,-0.02923 0.223057,-0.0915 0.307793,-0.177921 l 8.901079,-9.0778063 c 0.500942,-0.5108888 0.777582,-1.1908029 0.777582,-1.9139265 0,-0.7231236 -0.275394,-1.4017669 -0.777582,-1.91265564 z M 13.079664,12.592315 10.577443,13.23029 11.202998,10.678388 18.566357,3.1688322 20.443022,5.0827587 Z M 21.849899,3.6466784 21.381355,4.1245246 19.50469,2.2105981 19.973233,1.7327519 c 0.500943,-0.5108887 1.375723,-0.5108887 1.876666,0 0.250471,0.2554444 0.388791,0.594766 0.388791,0.9569633 0,0.3621972 -0.13832,0.7015189 -0.388791,0.9569632 z"
     id="path4"
     style="stroke-width:1.25844" /></svg>
